<?xml version="1.0" encoding="UTF-8" standalone="no"?>
<!DOCTYPE svg PUBLIC "-//W3C//DTD SVG 1.1//EN" "http://www.w3.org/Graphics/SVG/1.1/DTD/svg11.dtd">
<svg xmlns="http://www.w3.org/2000/svg" version="1.1" viewBox="0 0 718 155">
<g stroke-width="2.00" fill="none" stroke-linecap="butt">
<path stroke="#481d13" vector-effect="non-scaling-stroke" d="
  M 48.21 40.00
  C 45.78 48.99 41.76 53.63 47.20 62.55
  C 55.13 75.55 74.99 76.99 83.27 64.00
  C 89.74 53.86 87.73 43.55 83.91 32.67"
/>
<path stroke="#481d13" vector-effect="non-scaling-stroke" d="
  M 47.34 135.60
  Q 65.13 140.87 82.88 135.70
  Q 84.23 135.31 84.02 133.92
  L 78.41 96.28
  Q 78.33 95.75 77.80 95.75
  L 53.46 95.75
  A 0.90 0.89 -85.5 0 0 52.58 96.51
  L 46.86 134.85
  A 0.67 0.67 0.0 0 0 47.34 135.60"
/>
</g>
<path fill="#8f3a26" d="
  M 60.31 0.00
  Q 60.59 -0.03 60.78 0.04
  C 77.44 10.74 94.32 33.17 91.52 53.91
  C 87.97 80.23 52.81 85.89 42.04 61.96
  C 36.58 49.84 44.48 37.08 52.14 27.85
  C 59.40 19.08 63.13 11.42 60.31 0.00
  Z
  M 48.21 40.00
  C 45.78 48.99 41.76 53.63 47.20 62.55
  C 55.13 75.55 74.99 76.99 83.27 64.00
  C 89.74 53.86 87.73 43.55 83.91 32.67
  C 81.38 23.83 75.93 18.44 70.20 11.55
  Q 68.50 9.50 65.60 10.12
  Q 65.09 10.23 64.87 10.71
  C 63.61 13.56 63.35 16.63 61.84 19.19
  Q 56.13 28.83 49.13 37.58
  Q 48.83 37.96 48.69 38.42
  L 48.21 40.00
  Z"
/>
<path fill="#000000" d="
  M 515.86 50.20
  C 520.61 49.51 526.00 48.43 530.46 48.88
  Q 549.70 50.82 549.95 71.94
  Q 550.12 87.07 549.95 102.26
  A 1.67 1.67 0.0 0 1 548.65 103.86
  C 542.08 105.36 532.02 105.67 531.98 95.93
  Q 531.94 83.55 532.01 71.15
  Q 532.02 67.60 531.14 66.00
  C 528.66 61.50 515.02 61.18 515.02 67.15
  Q 514.99 84.52 515.00 101.94
  A 1.82 1.81 80.2 0 1 513.80 103.65
  C 508.76 105.46 498.54 105.55 497.84 97.91
  C 496.39 81.95 497.01 62.19 497.05 36.25
  Q 497.05 34.25 497.32 33.01
  Q 497.44 32.45 498.00 32.35
  C 502.58 31.51 510.84 30.07 513.84 34.48
  C 515.82 37.40 515.06 45.92 515.29 49.74
  Q 515.33 50.28 515.86 50.20
  Z"
/>
<path fill="#000000" d="
  M 83.91 32.67
  C 87.73 43.55 89.74 53.86 83.27 64.00
  C 74.99 76.99 55.13 75.55 47.20 62.55
  C 41.76 53.63 45.78 48.99 48.21 40.00
  C 52.05 42.65 54.92 39.00 57.09 36.34
  C 59.11 33.86 63.52 35.16 62.44 38.89
  Q 61.55 41.94 60.43 44.89
  C 56.98 53.94 69.44 54.55 68.82 47.77
  C 68.59 45.31 66.41 38.54 69.96 37.85
  C 76.55 36.57 69.27 51.16 78.06 50.32
  C 85.55 49.60 79.07 41.42 79.61 38.20
  Q 80.22 34.60 83.91 32.67
  Z"
/>
<path fill="#000000" d="
  M 304.66 57.89
  C 308.14 69.32 297.29 69.64 289.96 68.72
  Q 289.03 68.61 289.02 69.54
  Q 288.93 78.26 289.07 87.42
  C 289.15 92.98 297.66 91.80 301.07 91.00
  A 1.89 1.89 0.0 0 1 303.01 91.70
  C 314.52 107.06 271.53 114.80 271.19 87.81
  Q 270.90 64.28 271.02 40.65
  A 1.40 1.40 0.0 0 1 272.24 39.26
  C 285.75 37.54 289.89 39.25 288.94 54.09
  A 0.85 0.85 0.0 0 0 289.78 54.99
  Q 296.04 55.03 302.51 54.98
  C 303.97 54.97 304.32 56.75 304.66 57.89
  Z"
/>
<path fill="#8f3a26" d="
  M 89.13 133.14
  C 91.37 132.74 93.89 131.68 95.89 130.26
  C 125.71 109.02 127.92 73.20 107.30 44.49
  A 0.62 0.62 0.0 0 1 108.22 43.67
  C 121.21 55.54 130.19 72.28 130.43 89.93
  C 130.95 128.47 97.04 157.25 59.94 154.71
  Q 52.07 154.17 43.88 151.27
  C -3.10 134.63 -14.85 74.65 24.26 42.23
  A 0.56 0.56 0.0 0 1 25.06 42.99
  C 19.17 51.02 14.28 58.81 11.91 68.66
  C 6.16 92.54 14.72 116.73 35.05 130.75
  C 37.17 132.22 39.37 132.17 41.83 132.29
  A 1.26 1.26 0.0 0 0 43.14 131.17
  Q 45.38 111.95 48.91 92.82
  C 49.51 89.53 50.90 91.05 53.06 91.03
  Q 67.18 90.89 81.30 91.05
  Q 81.78 91.06 81.87 91.52
  Q 85.73 111.68 87.75 132.09
  A 1.19 1.18 82.1 0 0 89.13 133.14
  Z
  M 47.34 135.60
  Q 65.13 140.87 82.88 135.70
  Q 84.23 135.31 84.02 133.92
  L 78.41 96.28
  Q 78.33 95.75 77.80 95.75
  L 53.46 95.75
  A 0.90 0.89 -85.5 0 0 52.58 96.51
  L 46.86 134.85
  A 0.67 0.67 0.0 0 0 47.34 135.60
  Z"
/>
<path fill="#000000" d="
  M 174.78 49.54
  C 189.14 46.48 211.84 49.06 212.01 68.95
  Q 212.09 79.04 212.03 89.20
  Q 211.99 94.60 210.60 97.08
  C 206.08 105.14 190.70 105.87 182.24 105.25
  C 174.02 104.66 165.97 101.85 162.49 93.94
  C 157.09 81.65 166.87 72.32 178.69 71.17
  Q 186.31 70.43 194.00 69.93
  A 1.05 1.05 0.0 0 0 194.99 68.87
  C 194.96 57.39 174.14 62.05 168.37 64.27
  Q 167.32 64.67 166.73 63.71
  C 161.48 55.01 166.94 51.22 174.78 49.54
  Z
  M 180.39 83.63
  C 176.15 86.42 179.33 91.38 183.19 92.10
  Q 188.52 93.09 194.03 90.95
  Q 194.56 90.74 194.55 90.18
  L 194.38 82.06
  Q 194.37 81.33 193.64 81.35
  C 189.41 81.47 183.56 81.56 180.39 83.63
  Z"
/>
<path fill="#000000" d="
  M 254.56 48.95
  Q 255.16 49.02 255.84 49.00
  Q 256.37 48.98 256.73 49.36
  C 257.98 50.71 259.24 50.74 260.20 52.26
  Q 263.43 57.41 259.69 62.57
  Q 259.37 63.01 258.82 63.00
  Q 251.18 62.75 243.96 65.25
  A 1.44 1.42 80.7 0 0 243.00 66.61
  Q 243.02 84.01 242.98 101.69
  C 242.97 105.29 234.23 104.56 231.94 104.27
  Q 225.18 103.41 225.12 96.50
  Q 224.98 78.87 225.01 61.24
  C 225.01 58.27 227.54 55.64 230.19 54.05
  Q 241.33 47.37 254.56 48.95
  Z"
/>
<path fill="#000000" d="
  M 330.97 85.09
  C 330.89 87.86 333.28 90.08 335.95 90.90
  Q 347.84 94.59 359.50 89.31
  Q 359.99 89.09 360.40 89.43
  C 368.14 95.78 360.70 102.59 353.99 104.26
  C 341.41 107.38 326.11 105.23 318.24 94.38
  C 312.34 86.23 311.13 74.66 314.49 65.23
  C 322.95 41.50 363.28 43.41 365.86 69.72
  C 366.79 79.19 359.86 79.62 352.94 80.73
  Q 342.69 82.37 332.12 83.81
  A 1.33 1.33 0.0 0 0 330.97 85.09
  Z
  M 349.00 68.25
  C 345.57 57.52 329.04 60.75 329.32 71.32
  Q 329.35 72.51 330.53 72.32
  L 348.25 69.48
  A 0.95 0.94 76.6 0 0 349.00 68.25
  Z"
/>
<path fill="#000000" d="
  M 392.26 67.15
  C 393.80 69.97 400.97 70.90 403.98 71.58
  C 413.14 73.65 422.72 79.77 420.96 90.53
  C 418.26 107.13 393.89 108.09 381.75 102.67
  C 376.20 100.19 374.04 95.45 376.99 89.66
  C 377.92 87.81 379.51 87.98 381.26 88.76
  C 384.96 90.41 404.36 95.40 403.75 86.63
  Q 403.72 86.10 403.34 85.73
  Q 401.34 83.77 399.94 83.57
  Q 391.04 82.35 385.32 79.93
  C 370.11 73.49 372.92 55.22 387.51 50.40
  Q 399.87 46.32 412.45 50.78
  C 418.60 52.96 419.99 60.30 415.86 65.00
  Q 415.52 65.40 415.02 65.22
  C 410.56 63.60 393.57 59.17 392.12 66.23
  Q 392.02 66.72 392.26 67.15
  Z"
/>
<path fill="#000000" d="
  M 566.59 57.85
  C 580.54 41.51 610.44 47.20 613.74 69.51
  Q 615.05 78.32 605.95 79.82
  Q 592.26 82.10 578.66 84.02
  A 0.99 0.98 71.3 0 0 577.94 85.48
  C 582.34 93.30 592.50 93.11 600.12 91.68
  C 602.44 91.25 605.11 89.92 607.73 89.23
  Q 608.28 89.08 608.66 89.50
  C 613.62 94.95 611.14 100.61 604.94 103.07
  C 594.72 107.13 581.31 106.49 571.89 99.95
  C 559.13 91.09 556.31 69.89 566.59 57.85
  Z
  M 596.68 67.75
  C 592.50 57.60 577.01 61.13 577.26 71.67
  Q 577.28 72.46 578.05 72.33
  L 595.73 69.45
  Q 597.28 69.19 596.68 67.75
  Z"
/>
<path fill="#000000" d="
  M 625.94 57.69
  C 630.71 50.35 649.28 46.16 656.72 49.84
  C 661.61 52.26 662.06 57.89 659.68 62.38
  Q 659.46 62.80 658.98 62.80
  Q 650.43 62.68 642.51 65.76
  Q 642.00 65.96 642.00 66.51
  L 642.00 102.25
  A 1.47 1.46 81.8 0 1 640.95 103.66
  C 635.59 105.24 624.62 105.56 624.34 97.44
  Q 623.79 81.35 623.86 65.25
  Q 623.88 60.86 625.94 57.69
  Z"
/>
<path fill="#000000" d="
  M 699.84 69.25
  C 700.62 57.21 678.98 62.07 672.79 64.50
  Q 672.33 64.67 672.03 64.29
  C 665.87 56.31 671.80 51.33 679.48 49.72
  C 695.16 46.43 715.75 48.47 716.82 68.94
  Q 717.64 84.58 717.04 93.50
  C 716.61 99.98 708.50 103.07 703.00 104.25
  C 693.44 106.30 678.83 106.55 671.29 99.60
  C 663.65 92.56 664.52 78.59 674.33 73.84
  C 681.43 70.41 691.41 70.49 699.21 69.89
  Q 699.80 69.84 699.84 69.25
  Z
  M 685.32 83.70
  C 680.74 87.18 684.73 91.77 689.34 92.20
  Q 694.55 92.69 698.96 91.01
  Q 699.50 90.81 699.50 90.23
  L 699.50 82.00
  Q 699.50 81.34 698.85 81.36
  C 695.99 81.44 688.39 81.38 685.32 83.70
  Z"
/>
<path fill="#000000" d="
  M 432.02 61.73
  C 432.03 57.14 436.73 53.80 440.83 52.34
  Q 453.56 47.78 466.72 51.07
  C 500.15 59.43 490.23 114.58 451.17 104.22
  Q 450.64 104.08 450.24 104.46
  C 448.51 106.13 449.96 118.22 450.06 121.22
  A 2.41 2.41 0.0 0 1 448.49 123.55
  C 443.67 125.34 432.09 125.62 432.03 117.69
  Q 431.93 102.97 432.02 61.73
  Z
  M 449.91 66.25
  L 450.03 89.22
  Q 450.04 89.74 450.52 89.97
  C 457.19 93.11 465.42 90.98 467.35 83.22
  C 469.19 75.83 468.36 66.38 459.52 64.04
  Q 455.18 62.89 450.43 65.50
  Q 449.91 65.79 449.91 66.25
  Z"
/>
<rect fill="#000000" x="50.00" y="81.02" width="31.18" height="6.82" rx="3.15"/>
<path fill="#000000" d="
  M 47.34 135.60
  A 0.67 0.67 0.0 0 1 46.86 134.85
  L 52.58 96.51
  A 0.90 0.89 -85.5 0 1 53.46 95.75
  L 77.80 95.75
  Q 78.33 95.75 78.41 96.28
  L 84.02 133.92
  Q 84.23 135.31 82.88 135.70
  Q 65.13 140.87 47.34 135.60
  Z
  M 75.41 98.35
  L 69.70 98.21
  Q 69.09 98.19 69.11 98.80
  L 70.38 134.08
  A 0.71 0.71 0.0 0 0 71.09 134.76
  Q 74.87 134.77 78.30 133.13
  A 1.95 1.94 -14.3 0 0 79.40 131.29
  Q 78.58 115.09 76.22 99.06
  A 0.84 0.83 85.9 0 0 75.41 98.35
  Z"
/>
</svg>
