<?xml version="1.0" encoding="UTF-8" standalone="no"?>
<!DOCTYPE svg PUBLIC "-//W3C//DTD SVG 1.1//EN" "http://www.w3.org/Graphics/SVG/1.1/DTD/svg11.dtd">
<svg xmlns="http://www.w3.org/2000/svg" version="1.1" viewBox="0 0 38 46">
<g stroke-width="2.00" fill="none" stroke-linecap="butt">
<path stroke="#521b10" vector-effect="non-scaling-stroke" d="
  M 14.75 12.21
  C 5.80 23.00 31.49 26.70 24.21 10.50"
/>
<path stroke="#521b10" vector-effect="non-scaling-stroke" d="
  M 21.77 28.46
  L 16.06 28.52
  Q 15.38 28.52 15.28 29.20
  L 13.80 39.05
  Q 13.71 39.67 14.31 39.87
  Q 18.99 41.39 23.76 40.08
  Q 24.47 39.89 24.34 39.17
  L 22.68 29.22
  Q 22.55 28.45 21.77 28.46"
/>
</g>
<path fill="#a3361f" d="
  M 25.04 20.33
  C 21.41 25.23 12.05 23.42 11.72 16.92
  C 11.43 11.10 19.39 6.23 17.26 1.07
  A 0.25 0.25 0.0 0 1 17.62 0.76
  C 23.45 4.16 29.95 13.72 25.04 20.33
  Z
  M 14.75 12.21
  C 5.80 23.00 31.49 26.70 24.21 10.50
  Q 23.16 6.33 19.79 3.81
  Q 19.35 3.48 19.09 3.97
  L 14.75 12.21
  Z"
/>
<path fill="#000000" d="
  M 24.21 10.50
  C 31.49 26.70 5.80 23.00 14.75 12.21
  Q 16.02 12.17 16.85 11.04
  Q 17.31 10.40 17.70 11.09
  L 18.00 11.62
  Q 18.28 12.12 18.00 12.62
  Q 17.09 14.27 18.03 15.81
  Q 18.31 16.29 18.79 16.01
  L 19.31 15.70
  Q 19.76 15.44 19.79 14.92
  L 19.96 12.04
  Q 20.07 10.29 20.85 11.86
  Q 21.49 13.15 21.56 14.61
  Q 21.59 15.23 22.21 15.23
  L 22.97 15.22
  Q 23.77 15.22 23.59 14.44
  L 23.07 12.19
  Q 22.98 11.77 23.21 11.40
  Q 23.58 10.84 24.21 10.50
  Z"
/>
<path fill="#a3361f" d="
  M 26.25 39.06
  C 35.90 33.72 37.30 22.13 30.71 13.68
  Q 30.35 13.22 30.94 13.24
  Q 31.12 13.25 31.28 13.24
  Q 31.52 13.24 31.69 13.41
  Q 40.17 22.03 36.94 32.17
  C 30.86 51.29 3.28 49.21 0.37 29.57
  C -0.46 23.96 1.68 16.91 6.75 13.47
  Q 7.81 12.74 7.08 13.81
  C 0.90 22.84 2.13 33.15 11.49 39.05
  A 0.79 0.79 0.0 0 0 12.69 38.52
  L 14.56 27.57
  Q 14.66 27.00 15.24 27.00
  L 23.27 27.00
  A 0.69 0.69 0.0 0 1 23.95 27.58
  L 25.60 38.74
  Q 25.70 39.37 26.25 39.06
  Z
  M 21.77 28.46
  L 16.06 28.52
  Q 15.38 28.52 15.28 29.20
  L 13.80 39.05
  Q 13.71 39.67 14.31 39.87
  Q 18.99 41.39 23.76 40.08
  Q 24.47 39.89 24.34 39.17
  L 22.68 29.22
  Q 22.55 28.45 21.77 28.46
  Z"
/>
<rect fill="#000000" x="-4.46" y="-0.99" transform="translate(19.04,25.02) rotate(-0.1)" width="8.92" height="1.98" rx="0.94"/>
<path fill="#000000" d="
  M 22.68 29.22
  L 24.34 39.17
  Q 24.47 39.89 23.76 40.08
  Q 18.99 41.39 14.31 39.87
  Q 13.71 39.67 13.80 39.05
  L 15.28 29.20
  Q 15.38 28.52 16.06 28.52
  L 21.77 28.46
  Q 22.55 28.45 22.68 29.22
  Z
  M 22.27 30.26
  A 0.32 0.32 0.0 0 0 22.11 30.01
  L 20.81 29.26
  A 0.32 0.32 0.0 0 0 20.33 29.55
  L 20.57 39.26
  A 0.32 0.32 0.0 0 0 20.97 39.56
  L 22.69 39.14
  A 0.32 0.32 0.0 0 0 22.93 38.80
  L 22.27 30.26
  Z"
/>
</svg>
