<?xml version="1.0" standalone="yes"?>
<svg xmlns="http://www.w3.org/2000/svg" width="38" height="46">
<path style="fill:#000000; stroke:none;" d="M0 0L0 21L8 12C3.90015 21.0774 0.765129 32.6346 12 38C12.9432 34.3543 13.7011 30.756 14 27C22.857 27.0068 24.8906 29.2751 26 38C36.4501 33.0094 34.9478 21.519 30 13C33.1559 15.275 35.2048 17.5455 37 21C39.5005 15.041 38 6.43613 38 0L18 0C22.4113 4.82897 29.7216 11.6607 25.8202 18.9452C22.6304 24.901 12.5465 24.4106 11.6474 16.9846C10.9781 11.4569 16.6933 5.89891 17 0L0 0z"/>
<path style="fill:#a03620; stroke:none;" d="M17 0C16.3998 5.8279 11.5777 10.3149 11.3225 15.9961C11.0392 22.3045 18.893 25.6607 23.7716 22.1412C32.4253 15.8983 23.5013 3.40117 17 0z"/>
<path style="fill:#000000; stroke:none;" d="M19 4C17.7702 7.85272 14.4945 11.1132 13.6721 14.9954C12.5941 20.0836 18.8501 22.5203 22.6821 19.9722C28.5983 16.0383 22.5828 7.05117 19 4z"/>
<path style="fill:#a3371f; stroke:none;" d="M7 12C3.6408 15.5434 0.602067 18.9402 0.104938 24C-0.255967 27.6733 0.0743128 31.5692 1.48302 34.9992C2.83969 38.3025 5.0251 40.9156 8.01543 42.8665C15.2657 47.5966 26.4715 47.1576 32.6705 40.7863C40.1286 33.1209 40.407 17.9728 30 13C34.1556 22.9972 35.9979 30.7878 26 38C24.8326 28.7709 23.3804 27.001 14 27C13.5293 30.7047 12.8936 34.3728 12 38C6.34287 33.9191 2.73421 28.1884 4.5571 21C5.36641 17.8085 7.49095 15.2947 7 12z"/>
<path style="fill:#521e15; stroke:none;" d="M14 12L15 13L14 12z"/>
<path style="fill:#752717; stroke:none;" d="M25 14L25 17C25.6961 15.4463 25.6961 15.5537 25 14z"/>
<path style="fill:#240d08; stroke:none;" d="M17 21C18.506 21.683 19.3148 21.8259 21 22C19.494 21.317 18.6852 21.1741 17 21z"/>
<path style="fill:#402020; stroke:none;" d="M37 21L38 22L37 21z"/>
<path style="fill:#44180e; stroke:none;" d="M15 28C17.6127 29.0977 20.1645 28.9928 23 29C20.3873 27.9023 17.8355 28.0072 15 28z"/>
<path style="fill:#000000; stroke:none;" d="M15 29C14.9691 32.7352 14.467 36.3045 14 40L24 40L23 29L15 29z"/>
<path style="fill:#402020; stroke:none;" d="M0 32L1 33L0 32z"/>
<path style="fill:#762818; stroke:none;" d="M14.3333 32.6667C14.2778 32.7222 14.2222 33.7778 14.6667 33.3333C14.7222 33.2778 14.7778 32.2222 14.3333 32.6667z"/>
<path style="fill:#672215; stroke:none;" d="M23 32L23 35C23.6961 33.4463 23.6961 33.5537 23 32z"/>
<path style="fill:#000000; stroke:none;" d="M37 32C34.9066 38.5558 30.6212 43.0331 24 45C28.2165 46.7693 33.4589 46 38 46C38 41.4589 38.7693 36.2165 37 32M0 33L0 46L14 46C8.21026 41.9802 4.51267 38.3633 0 33z"/>
<path style="fill:#3d150e; stroke:none;" d="M14 34L14 37C14.6961 35.4463 14.6961 35.5537 14 34z"/>
<path style="fill:#402020; stroke:none;" d="M25 34L26 35L25 34M12 36L13 37L12 36z"/>
<path style="fill:#2d1009; stroke:none;" d="M15 40C17.3316 40.9845 19.4567 40.9813 22 41C19.6684 40.0155 17.5433 40.0187 15 40z"/>
</svg>
